<svg width="10" height="10" viewBox="0 0 10 10" fill="none" xmlns="http://www.w3.org/2000/svg">
<path d="M7.47092 2.5242C7.47092 2.5242 8.75893 3.1648 9.39493 3.4367C10.0139 3.7007 10.0839 4.6903 9.40292 5.0245C8.72192 5.3588 8.53493 5.4131 8.53493 5.4131C8.53493 5.4131 8.64192 5.1359 8.62692 4.868C8.58392 4.3905 7.17693 4.0031 6.24593 3.7737C6.24593 3.7737 5.53092 1.5214 5.20692 0.893999C4.88192 0.262599 4.22192 0 4.22192 0L5.77992 0.0212002C5.77992 0.0212002 6.31692 -0.00540006 6.55492 0.5716C6.79092 1.1513 7.47092 2.5242 7.47092 2.5242Z" fill="url(#paint0_linear_201_32)"/>
<path d="M7.37999 7.4593C7.37999 7.4593 6.74799 8.7379 6.46999 9.3919C6.20599 10.0126 5.20098 10.0829 4.86798 9.3998C4.53498 8.7167 4.50098 8.596 4.50098 8.596C4.50098 8.596 4.70199 8.6358 5.02199 8.6212C5.49799 8.5774 5.90598 7.1661 6.13498 6.231C6.13498 6.231 8.37698 5.5121 9.00398 5.1884C9.63298 4.8621 9.89299 4.2002 9.89299 4.2002L9.87198 5.9976C9.87198 5.9976 9.89899 6.3039 9.32399 6.5427C8.74699 6.7788 7.37999 7.4593 7.37999 7.4593Z" fill="url(#paint1_linear_201_32)"/>
<path d="M2.42097 7.3663C2.42097 7.3663 1.13896 6.7296 0.495964 6.4537C-0.123036 6.1897 -0.193031 5.1989 0.487969 4.866C1.16797 4.5317 1.44196 4.4707 1.44196 4.4707C1.44196 4.4707 1.26496 4.7545 1.30796 5.0742C1.35296 5.553 2.71496 5.8873 3.64396 6.1168C3.64396 6.1168 4.38596 8.3558 4.68296 8.9964C5.04496 9.7764 5.64497 9.89581 5.64497 9.89581L3.87797 9.86921C3.87797 9.86921 3.57196 9.89581 3.33396 9.31881C3.09896 8.73911 2.42097 7.3663 2.42097 7.3663Z" fill="url(#paint2_linear_201_32)"/>
<path d="M2.52699 2.42743C2.52699 2.42743 3.161 1.14213 3.436 0.494827C3.699 -0.125873 4.68501 -0.194873 5.01801 0.486927C5.35101 1.17003 5.383 1.29333 5.383 1.29333C5.383 1.29333 5.131 1.29733 4.866 1.31193C4.389 1.35703 3.99999 2.72323 3.77299 3.65703C3.77299 3.65703 1.53699 4.39053 0.903992 4.69963C0.0329917 5.12403 0 5.66793 0 5.66793L0.0350037 3.89183C0.0350037 3.89183 0.00899965 3.58543 0.584 3.34673C1.159 3.10793 2.52699 2.42743 2.52699 2.42743Z" fill="url(#paint3_linear_201_32)"/>
<defs>
<linearGradient id="paint0_linear_201_32" x1="4.25592" y1="-0.0336" x2="9.40192" y2="5.094" gradientUnits="userSpaceOnUse">
<stop offset="0.0411" stop-color="#FFF300"/>
<stop offset="0.2727" stop-color="#FFF300"/>
<stop offset="0.5022" stop-color="#FFE500"/>
<stop offset="0.8126" stop-color="#F2A930"/>
</linearGradient>
<linearGradient id="paint1_linear_201_32" x1="4.80198" y1="9.4004" x2="9.95698" y2="4.26408" gradientUnits="userSpaceOnUse">
<stop offset="0.1874" stop-color="#F2A930"/>
<stop offset="0.4978" stop-color="#FFE500"/>
<stop offset="0.7273" stop-color="#FFF300"/>
<stop offset="0.9589" stop-color="#FFF300"/>
</linearGradient>
<linearGradient id="paint2_linear_201_32" x1="0.495966" y1="4.7894" x2="5.63297" y2="9.908" gradientUnits="userSpaceOnUse">
<stop offset="0.1874" stop-color="#F2A930"/>
<stop offset="0.4978" stop-color="#FFE500"/>
<stop offset="0.7273" stop-color="#FFF300"/>
<stop offset="0.9589" stop-color="#FFF300"/>
</linearGradient>
<linearGradient id="paint3_linear_201_32" x1="-0.0280001" y1="5.64033" x2="5.115" y2="0.516331" gradientUnits="userSpaceOnUse">
<stop offset="0.0411" stop-color="#FFF300"/>
<stop offset="0.2727" stop-color="#FFF300"/>
<stop offset="0.5022" stop-color="#FFE500"/>
<stop offset="0.8126" stop-color="#F2A930"/>
</linearGradient>
</defs>
</svg>
